<svg xmlns="http://www.w3.org/2000/svg" xmlns:svg="http://www.w3.org/2000/svg" xmlns:rdf="http://www.w3.org/1999/02/22-rdf-syntax-ns#" xmlns:cc="http://creativecommons.org/ns#" id="Layer_1" data-name="Layer 1" viewBox="0 0 1852.6834 477.9" width="1852.6835" height="477.89999"><defs id="defs23967"><style id="style23960">.cls-1{font-size:353.73px;font-family:Montserrat-Bold, Montserrat;font-weight:700;}.cls-2{letter-spacing:-0.02em;}.cls-3{letter-spacing:0.04em;}.cls-4{fill:url(#linear-gradient);}.cls-5{fill:#fff;}</style><linearGradient id="linear-gradient" x1="7.6399999" y1="11.92" x2="707.15997" y2="698.48999" gradientUnits="userSpaceOnUse"><stop offset="0" stop-color="#3b916f" id="stop23962"></stop><stop offset="1" stop-color="#096aa5" id="stop23964"></stop></linearGradient></defs><g aria-label="Coinsult" id="text23979" class="cls-1" style="font-weight:700;font-size:353.73px;font-family:Montserrat-Bold, Montserrat"><path d="m 667.33666,373.54426 q -24.40737,0 -44.21625,-7.78206 -19.45515,-8.13579 -33.60435,-24.05364 -13.79547,-15.91785 -21.2238,-39.26403 -7.42833,-23.69991 -7.42833,-54.82815 0,-31.12825 7.42833,-55.18189 7.42833,-24.40737 21.2238,-40.67895 14.1492,-16.62531 33.60435,-25.11483 19.80888,-8.48952 44.21625,-8.48952 33.25063,0 55.18189,14.1492 21.93126,14.1492 35.01927,42.80133 l -39.97149,21.2238 q -5.30595,-16.62531 -17.33277,-26.52975 -12.02682,-10.25817 -32.8969,-10.25817 -26.17602,0 -41.74014,17.6865 -15.21039,17.6865 -15.21039,49.52221 v 38.9103 q 0,32.18943 15.21039,49.5222 15.56412,16.97904 41.74014,16.97904 20.87008,0 33.95809,-11.31936 13.44174,-11.31936 19.45515,-27.94467 l 37.84911,22.28499 q -13.44174,27.59094 -35.72673,43.15506 -22.28499,15.21039 -55.53562,15.21039 z" style="font-weight:600;font-family:'IBM Plex Sans';-inkscape-font-specification:'IBM Plex Sans Semi-Bold';letter-spacing:-0.02em;fill:#000" id="path42477"></path><path d="m 861.88756,373.54426 q -19.80888,0 -35.72673,-6.72087 -15.56412,-6.72087 -26.88348,-19.45515 -10.96563,-12.73428 -16.97904,-30.42078 -6.01341,-18.04023 -6.01341,-40.32522 0,-22.28499 6.01341,-39.97149 6.01341,-17.68651 16.97904,-30.06706 11.31936,-12.73428 26.88348,-19.45515 15.91785,-6.72087 35.72673,-6.72087 19.80888,0 35.72673,6.72087 15.91785,6.72087 26.88348,19.45515 11.31936,12.38055 17.33277,30.06706 6.01341,17.6865 6.01341,39.97149 0,22.28499 -6.01341,40.32522 -6.01341,17.6865 -17.33277,30.42078 -10.96563,12.73428 -26.88348,19.45515 -15.91785,6.72087 -35.72673,6.72087 z m 0,-36.43419 q 18.04023,0 28.2984,-10.96563 10.25817,-10.96563 10.25817,-32.18943 V 259.6432 q 0,-20.87007 -10.25817,-31.8357 -10.25817,-10.96564 -28.2984,-10.96564 -17.6865,0 -27.94467,10.96564 -10.25817,10.96563 -10.25817,31.8357 v 34.31181 q 0,21.2238 10.25817,32.18943 10.25817,10.96563 27.94467,10.96563 z" style="font-weight:600;font-family:'IBM Plex Sans';-inkscape-font-specification:'IBM Plex Sans Semi-Bold';letter-spacing:-0.02em;fill:#000" id="path42479"></path><path d="m 1003.3795,157.76895 q -14.14923,0 -20.51637,-6.36714 -6.01341,-6.36714 -6.01341,-16.27158 v -7.0746 q 0,-9.90444 6.01341,-16.27158 6.36714,-6.36714 20.51637,-6.36714 13.7954,0 20.1626,6.36714 6.3671,6.36714 6.3671,16.27158 v 7.0746 q 0,9.90444 -6.3671,16.27158 -6.3672,6.36714 -20.1626,6.36714 z m -22.63875,26.88348 h 45.27745 V 369.2995 h -45.27745 z" style="font-weight:600;font-family:'IBM Plex Sans';-inkscape-font-specification:'IBM Plex Sans Semi-Bold';letter-spacing:-0.02em;fill:#000" id="path42481"></path><path d="M 1071.2953,369.2995 V 184.65243 h 45.2774 v 30.77451 h 1.7687 q 5.6597,-14.85666 17.6865,-24.7611 12.3805,-10.25817 33.9581,-10.25817 28.6521,0 43.8625,18.74769 15.2104,18.74769 15.2104,53.41324 v 116.7309 h -45.2775 V 257.16709 q 0,-19.80888 -7.0746,-29.71332 -7.0746,-9.90445 -23.3462,-9.90445 -7.0746,0 -13.7954,2.12238 -6.3672,1.76865 -11.6731,5.65969 -4.9522,3.5373 -8.1358,9.19698 -3.1836,5.30595 -3.1836,12.73428 V 369.2995 Z" style="font-weight:600;font-family:'IBM Plex Sans';-inkscape-font-specification:'IBM Plex Sans Semi-Bold';letter-spacing:-0.02em;fill:#000" id="path42483"></path><path d="m 1332.7016,373.54426 q -26.5298,0 -44.57,-8.84325 -18.0402,-9.19698 -31.8357,-25.11483 l 27.5909,-26.88348 q 10.2582,11.67309 22.285,18.39396 12.3806,6.72087 28.2984,6.72087 16.2716,0 23.3462,-5.65968 7.4283,-5.65968 7.4283,-15.56412 0,-8.13579 -5.3059,-12.73428 -4.9522,-4.95222 -17.3328,-6.72087 l -18.3939,-2.47611 q -30.0671,-3.89103 -45.9849,-16.97904 -15.5642,-13.44174 -15.5642,-38.9103 0,-13.44174 4.9523,-24.05365 4.9522,-10.96563 14.1492,-18.39396 9.1969,-7.78206 21.9312,-11.67309 13.088,-4.24476 29.0059,-4.24476 13.4417,0 23.6999,2.12238 10.6119,1.76865 19.1014,5.65968 8.4895,3.5373 15.5641,9.19698 7.0746,5.30595 13.7955,12.02682 l -26.5298,26.52976 q -8.1357,-8.48952 -19.4551,-14.14921 -11.3194,-5.65968 -24.7611,-5.65968 -14.8567,0 -21.5775,5.30595 -6.3672,5.30596 -6.3672,13.79548 0,9.19698 5.306,14.1492 5.6597,4.59849 18.7477,6.72087 l 18.7477,2.47611 q 59.7803,8.48952 59.7803,54.47442 0,13.44174 -5.6597,24.7611 -5.3059,10.96563 -15.2103,19.10142 -9.9045,7.78206 -24.0537,12.38055 -13.7955,4.24476 -31.1282,4.24476 z" style="font-weight:600;font-family:'IBM Plex Sans';-inkscape-font-specification:'IBM Plex Sans Semi-Bold';letter-spacing:-0.02em;fill:#000" id="path42485"></path><path d="m 1552.0137,338.52499 h -1.7687 q -2.4761,7.0746 -6.7209,13.44174 -3.891,6.01341 -10.2581,10.96563 -6.0134,4.95222 -14.8567,7.78206 -8.4895,2.82984 -19.8089,2.82984 -28.6521,0 -43.8625,-18.74769 -15.2104,-18.74769 -15.2104,-53.41323 V 184.65243 h 45.2775 v 112.13242 q 0,19.10142 7.4283,29.35959 7.4283,9.90444 23.6999,9.90444 6.7209,0 13.088,-1.76865 6.7209,-1.76865 11.6731,-5.30595 4.9522,-3.89103 8.1358,-9.19698 3.1836,-5.65968 3.1836,-13.08801 V 184.65243 h 45.2774 V 369.2995 h -45.2774 z" style="font-weight:600;font-family:'IBM Plex Sans';-inkscape-font-specification:'IBM Plex Sans Semi-Bold';letter-spacing:-0.02em;fill:#000" id="path42487"></path><path d="m 1687.8458,369.2995 q -23.3462,0 -34.3118,-11.67309 -10.9656,-11.67309 -10.9656,-32.89689 V 107.53929 h 45.2774 v 225.67975 h 24.4074 v 36.08046 z" style="font-weight:600;font-family:'IBM Plex Sans';-inkscape-font-specification:'IBM Plex Sans Semi-Bold';letter-spacing:-0.02em;fill:#000" id="path42489"></path><path d="m 1795.3788,369.2995 q -23.3462,0 -35.7267,-12.02682 -12.0268,-12.38055 -12.0268,-35.01927 V 220.73289 h -27.2372 v -36.08046 h 14.1492 q 10.2581,0 13.7954,-4.59849 3.8911,-4.95222 3.8911,-14.50293 v -31.48197 h 40.6789 v 50.58339 h 37.8491 v 36.08046 h -37.8491 v 112.48615 h 35.0193 v 36.08046 z" style="font-weight:600;font-family:'IBM Plex Sans';-inkscape-font-specification:'IBM Plex Sans Semi-Bold';letter-spacing:-0.02em;fill:#000" id="path42491"></path></g><path class="cls-4" d="M 155.66,0 H 477.9 V 322.24 A 155.66,155.66 0 0 1 322.24,477.9 H 0 V 155.66 A 155.66,155.66 0 0 1 155.66,0 Z" id="path23981" style="fill:url(#linear-gradient)"></path><path class="cls-5" d="m 377.57,188.06 v 0 l -31.95,14.64 -22.43,10.28 -1,0.45 -30.84,13.93 c 0,-0.12 -0.05,-0.24 -0.09,-0.36 a 51.82,51.82 0 0 0 -10.27,-20.71 l -2.85,-6.23 30.77,-14.1 22.76,-10.43 32.23,-14.77 q 2.68,4.18 5,8.55 l 8.42,18.37 z" id="path23983"></path><path class="cls-5" d="m 382.78,272.47 a 145.64,145.64 0 0 1 -10.25,29.22 l -99.93,-17.06 0.94,-5.51 a 51.53,51.53 0 0 0 16,-22.56 z" id="path23985"></path><path class="cls-5" d="m 202.66,288.36 -40.37,28.59 -28.86,20.44 a 146.14,146.14 0 0 1 -18.15,-24.55 l 28.71,-20.34 20.17,-14.29 20.86,-14.77 z" id="path23987"></path><path class="cls-5" d="m 206.51,162.79 -12.48,27.86 -18.28,-8.19 -23.15,-10.37 -32.59,-14.61 a 145.39,145.39 0 0 1 20.54,-24.25 l 35.56,15.93 27.19,12.2 z" id="path23989"></path><path class="cls-5" d="m 348.19,266.56 a 110.78,110.78 0 0 1 -185.9,50.42 111.25,111.25 0 0 1 -18.3,-24.44 l -28.71,20.34 a 145.7,145.7 0 0 0 267.5,-40.41 z" id="path23991"></path><path class="cls-5" d="m 176.11,149.16 a 110.84,110.84 0 0 1 169.51,53.55 l 31.95,-14.64 c -0.06,-0.15 -0.11,-0.3 -0.17,-0.44 l -8.42,-18.37 q -2.37,-4.36 -5,-8.55 a 145.85,145.85 0 0 0 -243.91,-3.23 l 32.59,14.61 a 110.75,110.75 0 0 1 23.45,-22.93 z" id="path23993"></path><path class="cls-5" d="m 132.2,217.78 a 111.7,111.7 0 0 1 5.26,-18.43 l -32,-14.34 a 146.23,146.23 0 0 0 -3.1,99.32 l 30.36,-21.5 a 110.52,110.52 0 0 1 -0.52,-45.05 z" id="path23995"></path><polyline class="cls-5" points="344.02 198.43 321.99 209.5 321.03 209.99 290.81 225.16" id="polyline23997"></polyline><path class="cls-5" d="m 183.56,264.22 -19.51,13.82 a 85.61,85.61 0 0 1 -9,-31 l 10.88,-7.7 z" id="path23999"></path><path class="cls-5" d="m 198.23,193.12 -12.48,27.86 -25.86,-11.62 a 85.49,85.49 0 0 1 15.48,-26.52 z" id="path24001"></path><path class="cls-5" d="m 323.91,262.42 a 86.23,86.23 0 0 1 -159.74,15.84 0.84,0.84 0 0 1 -0.11,-0.21 86.26,86.26 0 0 1 11.33,-95.16 l 0.37,-0.42 A 86.28,86.28 0 0 1 323.19,213 v 0 l -1,0.44 -30.84,13.92 c 0,-0.12 -0.05,-0.24 -0.09,-0.36 a 51.77,51.77 0 1 0 -1.69,29.6 z" id="path24003"></path><metadata></metadata></svg>