<svg width="1800" height="638" viewBox="0 0 1800 638" fill="none" xmlns="http://www.w3.org/2000/svg">
<path fill-rule="evenodd" clip-rule="evenodd" d="M1437.71 441.866H1484.29V262.905H1437.71V441.866Z" fill="black"/>
<path fill-rule="evenodd" clip-rule="evenodd" d="M1437.71 242.449H1484.29V195.934H1437.71V242.449Z" fill="black"/>
<path fill-rule="evenodd" clip-rule="evenodd" d="M1366.58 441.85H1413.16V395.335H1366.58V441.85Z" fill="black"/>
<path fill-rule="evenodd" clip-rule="evenodd" d="M1037.17 417.571C1039.89 424.774 1044.03 430.409 1048.96 434.814C1053.95 439.282 1059.81 442.764 1066.75 444.743C1073.81 446.718 1081.59 447.492 1089.83 447.492C1098.34 447.492 1105.94 446.608 1112.42 444.861C1118.44 443.247 1124.21 440.962 1129.57 438.063V405.192C1121.03 408.877 1113.05 410.214 1103.95 410.639C1094.34 411.085 1088.65 408.341 1083.91 403.842C1078.96 399.125 1076.32 392.974 1076.32 382.657V283.239H1129.57V242.449H1076.32V195.934H1033.04V242.449H1007.1V283.239H1033.04V389.991C1033.04 401.018 1034.42 410.293 1037.17 417.571Z" fill="black"/>
<path fill-rule="evenodd" clip-rule="evenodd" d="M756.457 302.968H640.486V351.068H705.608C702.205 364.808 695.485 377.125 685.849 386.964C671.306 401.805 651.145 409.978 629.076 409.978C583.27 409.978 546.008 372.762 546.008 327.018C546.008 281.273 583.27 244.056 629.076 244.056C653.608 244.056 676.16 254.539 691.795 272.626L729.082 242.198C704.359 213.267 667.68 195.957 629.076 195.957C556.714 195.957 497.847 254.751 497.847 327.018C497.847 399.284 556.714 458.076 629.076 458.076C664.204 458.076 696.59 445.434 720.267 421.272C740.137 400.992 753.307 372.698 755.838 344.355C757.073 330.527 757.183 316.8 756.457 302.968Z" fill="black"/>
<path fill-rule="evenodd" clip-rule="evenodd" d="M1248.57 279.559C1275.29 279.559 1298.07 296.333 1306.98 319.91H1190.16C1199.06 296.333 1221.85 279.559 1248.57 279.559ZM1353.1 357.928C1353.89 352.7 1354.32 347.347 1354.32 341.9C1354.32 283.583 1306.97 236.309 1248.57 236.309C1190.19 236.309 1142.84 283.583 1142.84 341.9C1142.84 400.217 1190.19 447.488 1248.57 447.488C1288.63 447.488 1323.48 425.24 1341.43 392.448L1302.36 373.517C1291.5 391.899 1271.48 404.239 1248.57 404.239C1219.62 404.239 1195.28 384.554 1188.22 357.857H1308.91C1308.91 357.88 1308.9 357.903 1308.9 357.928H1353.1Z" fill="black"/>
<path fill-rule="evenodd" clip-rule="evenodd" d="M877.726 404.247C843.251 404.247 815.3 376.334 815.3 341.901C815.3 307.467 843.251 279.554 877.726 279.554C912.204 279.554 940.152 307.467 940.152 341.901C940.152 376.334 912.204 404.247 877.726 404.247ZM877.722 236.492C819.339 236.492 772.012 283.761 772.012 342.068C772.012 400.375 819.339 447.645 877.722 447.645C936.105 447.645 983.431 400.375 983.431 342.068C983.431 283.761 936.105 236.492 877.722 236.492Z" fill="black"/>
<mask id="mask0_6_154" style="mask-type:alpha" maskUnits="userSpaceOnUse" x="80" y="131" width="1640" height="375">
<path d="M80 506H1720V131H80V506Z" fill="white"/>
</mask>
<g mask="url(#mask0_6_154)">
<path fill-rule="evenodd" clip-rule="evenodd" d="M940.153 441.86H983.429V242.282H940.153V441.86Z" fill="black"/>
<path fill-rule="evenodd" clip-rule="evenodd" d="M1614.26 404.238C1579.78 404.238 1551.84 376.329 1551.84 341.898C1551.84 307.469 1579.78 279.559 1614.26 279.559C1648.73 279.559 1676.68 307.469 1676.68 341.898C1676.68 376.329 1648.73 404.238 1614.26 404.238ZM1614.26 236.309C1555.87 236.309 1508.52 283.58 1508.52 341.898C1508.52 400.214 1555.87 447.488 1614.26 447.488C1672.65 447.488 1720 400.214 1720 341.898C1720 283.58 1672.65 236.309 1614.26 236.309Z" fill="black"/>
<path fill-rule="evenodd" clip-rule="evenodd" d="M267.738 421.623C210.709 421.623 164.482 375.452 164.482 318.499C164.482 261.543 210.709 215.374 267.738 215.374V131C164.052 131 80 214.945 80 318.499C80 422.053 164.052 505.998 267.738 505.998C371.423 505.998 455.474 422.053 455.474 318.499H370.993C370.993 375.452 324.763 421.623 267.738 421.623Z" fill="#0051D2"/>
<path fill-rule="evenodd" clip-rule="evenodd" d="M267.726 318.491H370.982V215.366H267.726V318.491Z" fill="#14E0A1"/>
</g>
</svg>
